<?xml version="1.0" encoding="utf-8"?>
<!-- Generator: Adobe Illustrator 25.4.1, SVG Export Plug-In . SVG Version: 6.00 Build 0)  -->
<svg version="1.1" id="Capa_1" xmlns="http://www.w3.org/2000/svg" xmlns:xlink="http://www.w3.org/1999/xlink" x="0px" y="0px"
	 viewBox="0 0 1238 257.2" style="enable-background:new 0 0 1238 257.2;" xml:space="preserve">
<style type="text/css">
	.st0{fill:#141230;}
	.st1{fill:none;}
	.st2{fill:#161630;}
	.st3{font-family:'Corbel-Bold';}
	.st4{font-size:150px;}
	.st5{font-family:'CorbelLight';}
</style>
<path class="st0" d="M288.7-13.5"/>
<path class="st0" d="M679.7-13.5"/>
<g>
	<rect x="218.1" y="116.1" class="st1" width="1061.5" height="111.3"/>
	<text transform="matrix(0.6914 0 0 1 218.1415 222.1378)"><tspan x="0" y="0" class="st2 st3 st4">MindhubBrothers</tspan><tspan x="1140" y="0" class="st2 st5 st4">Bank</tspan></text>
</g>
<polyline class="st2" points="145.9,201.5 145.9,113.4 167,90.5 167,201.5 "/>
<polyline class="st2" points="35.8,227.4 35.8,207.7 68.8,207.7 68.8,121 89.5,141.2 89.5,174.2 114.2,174.2 114.2,142.6 
	133.9,124.2 133.9,208.1 167,208.1 167,227.4 113.8,227.4 113.8,193.9 89,193.5 89,227.4 "/>
<polyline class="st2" points="169.7,73.8 184.6,88.7 184.6,41.2 139.9,41.2 156.4,59.6 101.8,112.3 56.4,67.4 35.8,67.4 35.8,200.8 
	56.9,200.8 56.9,99 101.8,142.1 "/>
</svg>
